<svg width="32" height="32" viewBox="0 0 512 512" fill="none" xmlns="http://www.w3.org/2000/svg">
    <path fill-rule="evenodd" clip-rule="evenodd" d="M256 178.747C271.929 178.747 284.838 191.656 284.838 207.586C284.838 223.514 271.929 236.426 256 236.426C240.071 236.426 227.161 223.514 227.161 207.586C227.161 191.656 240.071 178.747 256 178.747ZM184.07 207.586V212.756L203.967 215.718C204.526 219.49 205.531 223.095 206.845 226.561L191.112 239.08L196.282 248.024L215.005 240.672C217.352 243.578 220.007 246.233 222.941 248.581L215.564 267.305L224.506 272.474L237.025 256.741C240.49 258.084 244.095 259.061 247.867 259.647L250.857 279.516H261.168L264.158 259.647C267.903 259.061 271.536 258.084 274.972 256.741L287.52 272.474L296.434 267.305L289.085 248.581C291.99 246.232 294.646 243.578 296.992 240.672L315.716 248.024L320.885 239.08L305.153 226.561C306.494 223.095 307.472 219.491 308.059 215.718L327.955 212.729V207.586V202.417L308.059 199.427C307.472 195.682 306.494 192.049 305.153 188.613L320.885 176.065L315.716 167.151L296.992 174.5C294.645 171.594 291.99 168.938 289.085 166.593L296.434 147.87L287.52 142.7L274.972 158.431C271.535 157.09 267.903 156.114 264.158 155.526L261.168 135.63H250.857L247.867 155.526C244.095 156.114 240.49 157.09 237.025 158.431L224.506 142.7L215.564 147.87L222.941 166.593C220.007 168.939 217.352 171.594 215.005 174.5L196.282 167.151L191.112 176.065L206.845 188.613C205.532 192.05 204.526 195.682 203.967 199.427L184.07 202.417V207.586ZM405.896 118.219C407.516 117.27 409.612 117.828 410.562 119.449C411.512 121.096 410.954 123.193 409.305 124.142L378.761 141.776C377.112 142.727 375.016 142.168 374.067 140.547C373.117 138.899 373.676 136.802 375.325 135.852L405.896 118.219ZM431.465 206.804C433.365 206.804 434.903 208.341 434.903 210.242C434.903 212.143 433.366 213.679 431.465 213.679H396.17C394.27 213.679 392.732 212.143 392.732 210.242C392.732 208.341 394.269 206.804 396.17 206.804H431.465ZM166.661 57.69C165.711 56.043 166.27 53.945 167.891 52.996C169.539 52.045 171.636 52.605 172.586 54.253L190.218 84.826C191.168 86.445 190.61 88.543 188.989 89.492C187.341 90.443 185.244 89.883 184.294 88.233L166.661 57.69ZM102.695 124.143C101.047 123.194 100.487 121.097 101.438 119.45C102.388 117.829 104.484 117.27 106.133 118.22L136.676 135.853C138.324 136.803 138.884 138.9 137.933 140.548C136.983 142.169 134.888 142.729 133.266 141.777L102.695 124.143ZM80.536 213.678C78.636 213.678 77.098 212.142 77.098 210.241C77.098 208.34 78.635 206.803 80.536 206.803H115.83C117.73 206.803 119.267 208.34 119.267 210.241C119.267 212.142 117.73 213.678 115.83 213.678H80.536ZM250.103 29.383C250.131 27.51 251.668 26.002 253.569 26.002C255.441 26.029 256.95 27.595 256.95 29.467L256.531 59.535C256.503 61.435 254.966 62.944 253.066 62.916C251.194 62.916 249.657 61.351 249.685 59.452L250.103 29.383ZM164.09 471.327C162.19 471.327 160.653 469.792 160.653 467.891C160.653 465.99 162.19 464.453 164.09 464.453H289.757C291.629 464.453 293.195 465.99 293.195 467.891C293.195 469.792 291.63 471.327 289.757 471.327H164.09ZM230.011 485.999C228.111 485.999 226.574 484.461 226.574 482.589C226.574 480.689 228.11 479.151 230.011 479.151H329.746C331.646 479.151 333.183 480.688 333.183 482.589C333.183 484.461 331.647 485.999 329.746 485.999H230.011ZM339.945 485.999C338.045 485.999 336.508 484.461 336.508 482.589C336.508 480.689 338.044 479.151 339.945 479.151H352.436C354.308 479.151 355.845 480.688 355.845 482.589C355.845 484.461 354.308 485.999 352.436 485.999H339.945ZM139.946 485.385C138.046 485.385 136.508 483.848 136.508 481.947C136.508 480.046 138.045 478.509 139.946 478.509H187.2C189.1 478.509 190.638 480.046 190.638 481.947C190.638 483.848 189.101 485.385 187.2 485.385H139.946ZM179.99 347.282C181.303 347.282 182.645 346.415 183.092 345.353C184.238 343.033 182.478 340.407 179.99 340.407H173.116C171.83 340.407 170.489 341.246 170.042 342.336C168.896 344.627 170.657 347.282 173.116 347.282H179.99ZM331.701 347.282C332.988 347.282 334.356 346.415 334.775 345.353C335.921 343.033 334.189 340.407 331.701 340.407H324.828C323.542 340.407 322.172 341.246 321.754 342.336C320.608 344.627 322.341 347.282 324.828 347.282H331.701ZM359.172 347.282C360.457 347.282 361.826 346.415 362.246 345.353C363.392 343.033 361.658 340.407 359.172 340.407H352.297C351.012 340.407 349.643 341.246 349.224 342.336C348.078 344.627 349.81 347.282 352.297 347.282H359.172ZM145.674 340.407C144.361 340.407 143.019 341.246 142.572 342.336C141.427 344.627 143.187 347.282 145.674 347.282H152.52C153.833 347.282 155.175 346.415 155.623 345.353C156.768 343.033 155.008 340.407 152.52 340.407H145.674ZM179.99 329.761C181.303 329.761 182.645 328.922 183.092 327.832C184.238 325.541 182.478 322.886 179.99 322.886H173.116C171.83 322.886 170.489 323.725 170.042 324.815C168.896 327.106 170.657 329.761 173.116 329.761H179.99ZM331.701 329.761C332.988 329.761 334.356 328.922 334.775 327.832C335.921 325.541 334.189 322.886 331.701 322.886H324.828C323.542 322.886 322.172 323.725 321.754 324.815C320.608 327.106 322.341 329.761 324.828 329.761H331.701ZM359.172 329.761C360.457 329.761 361.826 328.922 362.246 327.832C363.392 325.541 361.658 322.886 359.172 322.886H352.297C351.012 322.886 349.643 323.725 349.224 324.815C348.078 327.106 349.81 329.761 352.297 329.761H359.172ZM145.674 322.886C144.361 322.886 143.019 323.725 142.572 324.815C141.427 327.106 143.187 329.761 145.674 329.761H152.52C153.833 329.761 155.175 328.922 155.623 327.832C156.768 325.541 155.008 322.886 152.52 322.886H145.674ZM339.414 54.253C340.365 52.606 342.461 52.045 344.109 52.996C345.73 53.945 346.289 56.043 345.367 57.69L327.706 88.233C326.756 89.882 324.66 90.443 323.039 89.492C321.391 88.543 320.832 86.445 321.782 84.826L339.414 54.253ZM205.812 382.408H306.217V406.355H205.812V382.408ZM215.313 430.276H296.688V413.23H215.313V430.276ZM280.312 437.151V454.225H231.688V437.151H280.312ZM256 96.617C318.623 96.617 369.398 147.392 369.398 210.016C369.398 248.859 349.866 283.147 320.077 303.576L299.034 373.298C298.811 374.025 298.671 374.779 298.559 375.533H213.44C213.356 374.779 213.216 374.024 212.992 373.298L191.922 303.576C162.161 283.147 142.599 248.859 142.599 210.016C142.6 147.393 193.375 96.617 256 96.617Z" fill="currentColor"/>
</svg>